<mxfile host="app.diagrams.net" modified="2023-10-04T20:23:38.315Z" agent="Mozilla/5.0 (Windows NT 10.0; Win64; x64) AppleWebKit/537.36 (KHTML, like Gecko) Chrome/117.0.0.0 Safari/537.36" etag="zwFOsp1bUTqMnB-u02En" version="22.0.0" type="device">
  <diagram id="2RAkf9iS2bYrb-5zrusB" name="Page-1">
    <mxGraphModel dx="1434" dy="760" grid="1" gridSize="10" guides="1" tooltips="1" connect="1" arrows="1" fold="1" page="1" pageScale="1" pageWidth="850" pageHeight="1100" math="0" shadow="0">
      <root>
        <mxCell id="0" />
        <mxCell id="1" parent="0" />
        <mxCell id="V42Uoq7RvH6Dob9uq_5v-13" style="edgeStyle=orthogonalEdgeStyle;rounded=0;orthogonalLoop=1;jettySize=auto;html=1;curved=1;exitX=0.5;exitY=1;exitDx=0;exitDy=0;" edge="1" parent="1" source="V42Uoq7RvH6Dob9uq_5v-11" target="V42Uoq7RvH6Dob9uq_5v-12">
          <mxGeometry relative="1" as="geometry" />
        </mxCell>
        <mxCell id="V42Uoq7RvH6Dob9uq_5v-15" style="edgeStyle=orthogonalEdgeStyle;rounded=0;orthogonalLoop=1;jettySize=auto;html=1;entryX=0;entryY=0.5;entryDx=0;entryDy=0;curved=1;" edge="1" parent="1" source="V42Uoq7RvH6Dob9uq_5v-11" target="V42Uoq7RvH6Dob9uq_5v-14">
          <mxGeometry relative="1" as="geometry" />
        </mxCell>
        <mxCell id="V42Uoq7RvH6Dob9uq_5v-20" style="edgeStyle=orthogonalEdgeStyle;rounded=0;orthogonalLoop=1;jettySize=auto;html=1;curved=1;exitX=0.5;exitY=1;exitDx=0;exitDy=0;" edge="1" parent="1" source="V42Uoq7RvH6Dob9uq_5v-11" target="V42Uoq7RvH6Dob9uq_5v-18">
          <mxGeometry relative="1" as="geometry" />
        </mxCell>
        <mxCell id="V42Uoq7RvH6Dob9uq_5v-38" style="edgeStyle=orthogonalEdgeStyle;rounded=0;orthogonalLoop=1;jettySize=auto;html=1;curved=1;exitX=0.5;exitY=1;exitDx=0;exitDy=0;" edge="1" parent="1" source="V42Uoq7RvH6Dob9uq_5v-11" target="V42Uoq7RvH6Dob9uq_5v-37">
          <mxGeometry relative="1" as="geometry" />
        </mxCell>
        <mxCell id="V42Uoq7RvH6Dob9uq_5v-11" value="&lt;b&gt;Top Level Claim C1:&lt;/b&gt;&lt;br&gt;Nextcloud provides proper communication protection.&lt;b&gt;&lt;br&gt;&lt;/b&gt;" style="rounded=0;whiteSpace=wrap;html=1;" vertex="1" parent="1">
          <mxGeometry x="345" y="70" width="125" height="60" as="geometry" />
        </mxCell>
        <mxCell id="V42Uoq7RvH6Dob9uq_5v-17" style="edgeStyle=orthogonalEdgeStyle;rounded=0;orthogonalLoop=1;jettySize=auto;html=1;entryX=0.5;entryY=0;entryDx=0;entryDy=0;curved=1;" edge="1" parent="1" source="V42Uoq7RvH6Dob9uq_5v-12" target="V42Uoq7RvH6Dob9uq_5v-46">
          <mxGeometry relative="1" as="geometry">
            <mxPoint x="245" y="330" as="targetPoint" />
          </mxGeometry>
        </mxCell>
        <mxCell id="V42Uoq7RvH6Dob9uq_5v-12" value="&lt;b&gt;Rebuttal R1:&lt;/b&gt;&lt;br&gt;Unless HTTPS is not required" style="shape=note;whiteSpace=wrap;html=1;backgroundOutline=1;darkOpacity=0.05;size=17;fillColor=#FFF2CC;" vertex="1" parent="1">
          <mxGeometry x="105" y="210" width="140" height="60" as="geometry" />
        </mxCell>
        <mxCell id="V42Uoq7RvH6Dob9uq_5v-14" value="&lt;b&gt;Context:&lt;/b&gt;&lt;br&gt;Nextcloud has been configured recommended hardening" style="rounded=1;whiteSpace=wrap;html=1;arcSize=30;" vertex="1" parent="1">
          <mxGeometry x="575" y="40" width="160" height="90" as="geometry" />
        </mxCell>
        <mxCell id="V42Uoq7RvH6Dob9uq_5v-32" style="edgeStyle=orthogonalEdgeStyle;rounded=0;orthogonalLoop=1;jettySize=auto;html=1;curved=1;exitX=0.5;exitY=1;exitDx=0;exitDy=0;" edge="1" parent="1" source="V42Uoq7RvH6Dob9uq_5v-46" target="V42Uoq7RvH6Dob9uq_5v-26">
          <mxGeometry relative="1" as="geometry">
            <mxPoint x="245" y="390" as="sourcePoint" />
          </mxGeometry>
        </mxCell>
        <mxCell id="V42Uoq7RvH6Dob9uq_5v-22" style="edgeStyle=orthogonalEdgeStyle;rounded=0;orthogonalLoop=1;jettySize=auto;html=1;curved=1;entryX=0.5;entryY=0;entryDx=0;entryDy=0;" edge="1" parent="1" source="V42Uoq7RvH6Dob9uq_5v-18" target="V42Uoq7RvH6Dob9uq_5v-45">
          <mxGeometry relative="1" as="geometry">
            <mxPoint x="465" y="330" as="targetPoint" />
          </mxGeometry>
        </mxCell>
        <mxCell id="V42Uoq7RvH6Dob9uq_5v-18" value="&lt;b&gt;Rebuttal R2&lt;/b&gt;:&lt;br&gt;Unless TLS is not properly configured" style="shape=note;whiteSpace=wrap;html=1;backgroundOutline=1;darkOpacity=0.05;size=17;fillColor=#FFF2CC;" vertex="1" parent="1">
          <mxGeometry x="345" y="210" width="140" height="60" as="geometry" />
        </mxCell>
        <mxCell id="V42Uoq7RvH6Dob9uq_5v-30" style="edgeStyle=orthogonalEdgeStyle;rounded=0;orthogonalLoop=1;jettySize=auto;html=1;curved=1;exitX=0.5;exitY=1;exitDx=0;exitDy=0;" edge="1" parent="1" source="V42Uoq7RvH6Dob9uq_5v-45" target="V42Uoq7RvH6Dob9uq_5v-25">
          <mxGeometry relative="1" as="geometry">
            <mxPoint x="465" y="390" as="sourcePoint" />
          </mxGeometry>
        </mxCell>
        <mxCell id="V42Uoq7RvH6Dob9uq_5v-31" style="edgeStyle=orthogonalEdgeStyle;rounded=0;orthogonalLoop=1;jettySize=auto;html=1;curved=1;entryX=0.5;entryY=0;entryDx=0;entryDy=0;" edge="1" parent="1" source="V42Uoq7RvH6Dob9uq_5v-25" target="V42Uoq7RvH6Dob9uq_5v-47">
          <mxGeometry relative="1" as="geometry" />
        </mxCell>
        <mxCell id="V42Uoq7RvH6Dob9uq_5v-25" value="&lt;b&gt;Rebuttal R4:&lt;br&gt;&lt;/b&gt;Unless insecure Ciphers are allowed" style="shape=note;whiteSpace=wrap;html=1;backgroundOutline=1;darkOpacity=0.05;size=17;fillColor=#FFF2CC;" vertex="1" parent="1">
          <mxGeometry x="345" y="440" width="140" height="60" as="geometry" />
        </mxCell>
        <mxCell id="V42Uoq7RvH6Dob9uq_5v-34" style="edgeStyle=orthogonalEdgeStyle;rounded=0;orthogonalLoop=1;jettySize=auto;html=1;curved=1;entryX=0.5;entryY=0;entryDx=0;entryDy=0;" edge="1" parent="1" source="V42Uoq7RvH6Dob9uq_5v-26" target="V42Uoq7RvH6Dob9uq_5v-48">
          <mxGeometry relative="1" as="geometry" />
        </mxCell>
        <mxCell id="V42Uoq7RvH6Dob9uq_5v-26" value="&lt;b&gt;Rebuttal R3:&lt;br&gt;Unless the protocol is being stripped&lt;br&gt;&lt;/b&gt;" style="shape=note;whiteSpace=wrap;html=1;backgroundOutline=1;darkOpacity=0.05;size=17;fillColor=#FFF2CC;" vertex="1" parent="1">
          <mxGeometry x="125" y="440" width="140" height="60" as="geometry" />
        </mxCell>
        <mxCell id="V42Uoq7RvH6Dob9uq_5v-29" style="edgeStyle=orthogonalEdgeStyle;rounded=0;orthogonalLoop=1;jettySize=auto;html=1;entryX=0.5;entryY=0;entryDx=0;entryDy=0;curved=1;exitX=0.5;exitY=1;exitDx=0;exitDy=0;" edge="1" parent="1" source="V42Uoq7RvH6Dob9uq_5v-47" target="V42Uoq7RvH6Dob9uq_5v-28">
          <mxGeometry relative="1" as="geometry" />
        </mxCell>
        <mxCell id="V42Uoq7RvH6Dob9uq_5v-53" style="edgeStyle=orthogonalEdgeStyle;rounded=0;orthogonalLoop=1;jettySize=auto;html=1;" edge="1" parent="1" source="V42Uoq7RvH6Dob9uq_5v-28" target="V42Uoq7RvH6Dob9uq_5v-50">
          <mxGeometry relative="1" as="geometry" />
        </mxCell>
        <mxCell id="V42Uoq7RvH6Dob9uq_5v-28" value="&lt;b&gt;Evidence E2:&lt;/b&gt;&lt;br&gt;Ciphers have been verified against verification services" style="ellipse;whiteSpace=wrap;html=1;aspect=fixed;fillColor=#ffffff;rounded=0;" vertex="1" parent="1">
          <mxGeometry x="375" y="720" width="120" height="120" as="geometry" />
        </mxCell>
        <mxCell id="V42Uoq7RvH6Dob9uq_5v-36" style="edgeStyle=orthogonalEdgeStyle;rounded=0;orthogonalLoop=1;jettySize=auto;html=1;curved=1;exitX=0.5;exitY=1;exitDx=0;exitDy=0;" edge="1" parent="1" source="V42Uoq7RvH6Dob9uq_5v-48" target="V42Uoq7RvH6Dob9uq_5v-35">
          <mxGeometry relative="1" as="geometry" />
        </mxCell>
        <mxCell id="V42Uoq7RvH6Dob9uq_5v-52" style="edgeStyle=orthogonalEdgeStyle;rounded=0;orthogonalLoop=1;jettySize=auto;html=1;" edge="1" parent="1" source="V42Uoq7RvH6Dob9uq_5v-35" target="V42Uoq7RvH6Dob9uq_5v-49">
          <mxGeometry relative="1" as="geometry" />
        </mxCell>
        <mxCell id="V42Uoq7RvH6Dob9uq_5v-35" value="&lt;b&gt;Evidence E1:&lt;/b&gt;&lt;br&gt;The VirtualHost file has been configured in Apache to use Strict Transport Security." style="ellipse;whiteSpace=wrap;html=1;aspect=fixed;fillColor=#ffffff;rounded=0;" vertex="1" parent="1">
          <mxGeometry x="165" y="720" width="120" height="120" as="geometry" />
        </mxCell>
        <mxCell id="V42Uoq7RvH6Dob9uq_5v-40" style="edgeStyle=orthogonalEdgeStyle;rounded=0;orthogonalLoop=1;jettySize=auto;html=1;curved=1;" edge="1" parent="1" source="V42Uoq7RvH6Dob9uq_5v-37" target="V42Uoq7RvH6Dob9uq_5v-39">
          <mxGeometry relative="1" as="geometry" />
        </mxCell>
        <mxCell id="V42Uoq7RvH6Dob9uq_5v-37" value="&lt;b&gt;Inference Rule IR1:&lt;/b&gt;&lt;br&gt;If Web communication is secure, so is app access." style="shape=process;whiteSpace=wrap;html=1;backgroundOutline=1;fillColor=#A9C4EB;size=0.05555555555555555;" vertex="1" parent="1">
          <mxGeometry x="565" y="210" width="180" height="60" as="geometry" />
        </mxCell>
        <mxCell id="V42Uoq7RvH6Dob9uq_5v-43" style="edgeStyle=orthogonalEdgeStyle;rounded=0;orthogonalLoop=1;jettySize=auto;html=1;curved=1;" edge="1" parent="1" source="V42Uoq7RvH6Dob9uq_5v-39" target="V42Uoq7RvH6Dob9uq_5v-42">
          <mxGeometry relative="1" as="geometry" />
        </mxCell>
        <mxCell id="V42Uoq7RvH6Dob9uq_5v-39" value="&lt;b&gt;Undercut UC1:&lt;/b&gt;&lt;br&gt;Unless the app communicates over a different protocol" style="shape=note;whiteSpace=wrap;html=1;backgroundOutline=1;darkOpacity=0.05;size=17;fillColor=#F19C99;" vertex="1" parent="1">
          <mxGeometry x="595" y="340" width="140" height="60" as="geometry" />
        </mxCell>
        <mxCell id="V42Uoq7RvH6Dob9uq_5v-42" value="&lt;b&gt;Sub Claim C6:&lt;/b&gt;&lt;br&gt;&lt;b&gt;Nextcloud only communicates with users over web protocols&lt;br&gt;&lt;/b&gt;" style="rounded=0;whiteSpace=wrap;html=1;" vertex="1" parent="1">
          <mxGeometry x="602.5" y="470" width="142.5" height="70" as="geometry" />
        </mxCell>
        <mxCell id="V42Uoq7RvH6Dob9uq_5v-44" value="" style="rhombus;whiteSpace=wrap;html=1;fillColor=#000000;" vertex="1" parent="1">
          <mxGeometry x="658.75" y="540" width="30" height="30" as="geometry" />
        </mxCell>
        <mxCell id="V42Uoq7RvH6Dob9uq_5v-45" value="&lt;b style=&quot;border-color: var(--border-color);&quot;&gt;Sub Claim C3:&lt;/b&gt;&lt;br style=&quot;border-color: var(--border-color);&quot;&gt;TLS 1.3 is required for connection&lt;b&gt;&lt;br&gt;&lt;/b&gt;" style="rounded=0;whiteSpace=wrap;html=1;" vertex="1" parent="1">
          <mxGeometry x="405" y="330" width="125" height="60" as="geometry" />
        </mxCell>
        <mxCell id="V42Uoq7RvH6Dob9uq_5v-46" value="&lt;b style=&quot;border-color: var(--border-color);&quot;&gt;Sub Claim C2:&lt;/b&gt;&lt;br style=&quot;border-color: var(--border-color);&quot;&gt;HTTPS is Required to connect&lt;b&gt;&lt;br&gt;&lt;/b&gt;" style="rounded=0;whiteSpace=wrap;html=1;" vertex="1" parent="1">
          <mxGeometry x="192.5" y="330" width="125" height="60" as="geometry" />
        </mxCell>
        <mxCell id="V42Uoq7RvH6Dob9uq_5v-47" value="&lt;b style=&quot;border-color: var(--border-color);&quot;&gt;Sub Claim C5:&lt;/b&gt;&lt;br style=&quot;border-color: var(--border-color);&quot;&gt;Secure Ciphers have been configured.&lt;b&gt;&lt;br&gt;&lt;/b&gt;" style="rounded=0;whiteSpace=wrap;html=1;" vertex="1" parent="1">
          <mxGeometry x="320" y="580" width="125" height="60" as="geometry" />
        </mxCell>
        <mxCell id="V42Uoq7RvH6Dob9uq_5v-48" value="&lt;b style=&quot;border-color: var(--border-color);&quot;&gt;Sub Claim C4:&lt;/b&gt;&lt;br style=&quot;border-color: var(--border-color);&quot;&gt;HTTPS Strict Transport Security has been enabled&lt;b&gt;&lt;br&gt;&lt;/b&gt;" style="rounded=0;whiteSpace=wrap;html=1;" vertex="1" parent="1">
          <mxGeometry x="112.5" y="580" width="125" height="60" as="geometry" />
        </mxCell>
        <mxCell id="V42Uoq7RvH6Dob9uq_5v-49" value="" style="ellipse;whiteSpace=wrap;html=1;aspect=fixed;fillColor=#CCCCCC;" vertex="1" parent="1">
          <mxGeometry x="210" y="880" width="30" height="30" as="geometry" />
        </mxCell>
        <mxCell id="V42Uoq7RvH6Dob9uq_5v-50" value="" style="ellipse;whiteSpace=wrap;html=1;aspect=fixed;fillColor=#CCCCCC;" vertex="1" parent="1">
          <mxGeometry x="420" y="880" width="30" height="30" as="geometry" />
        </mxCell>
      </root>
    </mxGraphModel>
  </diagram>
</mxfile>
